<mxfile host="app.diagrams.net" modified="2021-02-24T06:01:32.509Z" agent="5.0 (Macintosh; Intel Mac OS X 11_0_1) AppleWebKit/537.36 (KHTML, like Gecko) Chrome/88.0.4324.182 Safari/537.36" etag="_-NIm2mcDitOpo4wRqY9" version="14.4.2" type="github">
  <diagram id="FbwLlwbWRH05Lewgxh2s" name="Page-1">
    <mxGraphModel dx="946" dy="589" grid="1" gridSize="10" guides="1" tooltips="1" connect="1" arrows="1" fold="1" page="1" pageScale="1" pageWidth="850" pageHeight="1100" math="0" shadow="0">
      <root>
        <mxCell id="0" />
        <mxCell id="1" parent="0" />
        <mxCell id="JJRQ3spBi9KuivwHK7BW-1" value="0" style="rounded=0;whiteSpace=wrap;html=1;" parent="1" vertex="1">
          <mxGeometry x="170" y="70" width="20" height="30" as="geometry" />
        </mxCell>
        <mxCell id="JJRQ3spBi9KuivwHK7BW-2" value="0" style="rounded=0;whiteSpace=wrap;html=1;" parent="1" vertex="1">
          <mxGeometry x="190" y="70" width="20" height="30" as="geometry" />
        </mxCell>
        <mxCell id="JJRQ3spBi9KuivwHK7BW-3" value="3" style="rounded=0;whiteSpace=wrap;html=1;" parent="1" vertex="1">
          <mxGeometry x="210" y="70" width="20" height="30" as="geometry" />
        </mxCell>
        <mxCell id="JJRQ3spBi9KuivwHK7BW-4" value="4" style="rounded=0;whiteSpace=wrap;html=1;" parent="1" vertex="1">
          <mxGeometry x="230" y="70" width="20" height="30" as="geometry" />
        </mxCell>
        <mxCell id="JJRQ3spBi9KuivwHK7BW-5" value="4" style="rounded=0;whiteSpace=wrap;html=1;" parent="1" vertex="1">
          <mxGeometry x="250" y="70" width="20" height="30" as="geometry" />
        </mxCell>
        <mxCell id="JJRQ3spBi9KuivwHK7BW-6" value="4" style="rounded=0;whiteSpace=wrap;html=1;" parent="1" vertex="1">
          <mxGeometry x="270" y="70" width="20" height="30" as="geometry" />
        </mxCell>
        <mxCell id="JJRQ3spBi9KuivwHK7BW-7" value="4" style="rounded=0;whiteSpace=wrap;html=1;" parent="1" vertex="1">
          <mxGeometry x="290" y="70" width="20" height="30" as="geometry" />
        </mxCell>
        <mxCell id="JJRQ3spBi9KuivwHK7BW-8" value="7" style="rounded=0;whiteSpace=wrap;html=1;" parent="1" vertex="1">
          <mxGeometry x="310" y="70" width="20" height="30" as="geometry" />
        </mxCell>
        <mxCell id="JJRQ3spBi9KuivwHK7BW-9" value="7" style="rounded=0;whiteSpace=wrap;html=1;" parent="1" vertex="1">
          <mxGeometry x="330" y="70" width="20" height="30" as="geometry" />
        </mxCell>
        <mxCell id="JJRQ3spBi9KuivwHK7BW-10" value="7" style="rounded=0;whiteSpace=wrap;html=1;" parent="1" vertex="1">
          <mxGeometry x="350" y="70" width="20" height="30" as="geometry" />
        </mxCell>
        <mxCell id="JJRQ3spBi9KuivwHK7BW-11" value="0" style="rounded=0;whiteSpace=wrap;html=1;" parent="1" vertex="1">
          <mxGeometry x="170" y="130" width="20" height="30" as="geometry" />
        </mxCell>
        <mxCell id="JJRQ3spBi9KuivwHK7BW-12" value="0" style="rounded=0;whiteSpace=wrap;html=1;" parent="1" vertex="1">
          <mxGeometry x="190" y="130" width="20" height="30" as="geometry" />
        </mxCell>
        <mxCell id="JJRQ3spBi9KuivwHK7BW-13" value="1" style="rounded=0;whiteSpace=wrap;html=1;" parent="1" vertex="1">
          <mxGeometry x="210" y="130" width="20" height="30" as="geometry" />
        </mxCell>
        <mxCell id="JJRQ3spBi9KuivwHK7BW-14" value="2" style="rounded=0;whiteSpace=wrap;html=1;" parent="1" vertex="1">
          <mxGeometry x="230" y="130" width="20" height="30" as="geometry" />
        </mxCell>
        <mxCell id="JJRQ3spBi9KuivwHK7BW-15" value="2" style="rounded=0;whiteSpace=wrap;html=1;" parent="1" vertex="1">
          <mxGeometry x="250" y="130" width="20" height="30" as="geometry" />
        </mxCell>
        <mxCell id="JJRQ3spBi9KuivwHK7BW-16" value="&amp;nbsp;0&amp;nbsp; &amp;nbsp; 1&amp;nbsp; &amp;nbsp; &amp;nbsp;2&amp;nbsp; &amp;nbsp; 3&amp;nbsp; &amp;nbsp; 4&amp;nbsp; &amp;nbsp; 5&amp;nbsp; &amp;nbsp;6&amp;nbsp; &amp;nbsp; 7&amp;nbsp; &amp;nbsp; 8&amp;nbsp; &amp;nbsp; &amp;nbsp;9" style="text;html=1;strokeColor=none;fillColor=none;align=left;verticalAlign=middle;whiteSpace=wrap;rounded=0;" parent="1" vertex="1">
          <mxGeometry x="170" y="50" width="233" height="20" as="geometry" />
        </mxCell>
        <mxCell id="JJRQ3spBi9KuivwHK7BW-19" value="2" style="rounded=0;whiteSpace=wrap;html=1;" parent="1" vertex="1">
          <mxGeometry x="270" y="130" width="20" height="30" as="geometry" />
        </mxCell>
        <mxCell id="JJRQ3spBi9KuivwHK7BW-20" value="2" style="rounded=0;whiteSpace=wrap;html=1;" parent="1" vertex="1">
          <mxGeometry x="290" y="130" width="20" height="30" as="geometry" />
        </mxCell>
        <mxCell id="JJRQ3spBi9KuivwHK7BW-21" value="S0" style="text;html=1;strokeColor=none;fillColor=none;align=center;verticalAlign=middle;whiteSpace=wrap;rounded=0;" parent="1" vertex="1">
          <mxGeometry x="130" y="70" width="40" height="20" as="geometry" />
        </mxCell>
        <mxCell id="JJRQ3spBi9KuivwHK7BW-22" value="S4" style="text;html=1;strokeColor=none;fillColor=none;align=center;verticalAlign=middle;whiteSpace=wrap;rounded=0;" parent="1" vertex="1">
          <mxGeometry x="130" y="130" width="40" height="20" as="geometry" />
        </mxCell>
        <mxCell id="A2IB_tkcsXlLNOzob3Ax-12" value="" style="group" parent="1" vertex="1" connectable="0">
          <mxGeometry x="160" y="210" width="130" height="120" as="geometry" />
        </mxCell>
        <mxCell id="A2IB_tkcsXlLNOzob3Ax-7" value="" style="group" parent="A2IB_tkcsXlLNOzob3Ax-12" vertex="1" connectable="0">
          <mxGeometry x="20" y="20" width="110" height="100" as="geometry" />
        </mxCell>
        <mxCell id="A2IB_tkcsXlLNOzob3Ax-11" value="" style="rounded=0;whiteSpace=wrap;html=1;dashed=1;" parent="A2IB_tkcsXlLNOzob3Ax-7" vertex="1">
          <mxGeometry x="-20" y="-20" width="100" height="100" as="geometry" />
        </mxCell>
        <mxCell id="A2IB_tkcsXlLNOzob3Ax-2" value="" style="rounded=0;whiteSpace=wrap;html=1;" parent="A2IB_tkcsXlLNOzob3Ax-7" vertex="1">
          <mxGeometry width="70" height="66.66666666666667" as="geometry" />
        </mxCell>
        <mxCell id="A2IB_tkcsXlLNOzob3Ax-3" value="a" style="rounded=0;whiteSpace=wrap;html=1;" parent="A2IB_tkcsXlLNOzob3Ax-7" vertex="1">
          <mxGeometry x="35" width="35" height="16.666666666666668" as="geometry" />
        </mxCell>
        <mxCell id="A2IB_tkcsXlLNOzob3Ax-4" value="b" style="rounded=0;whiteSpace=wrap;html=1;" parent="A2IB_tkcsXlLNOzob3Ax-7" vertex="1">
          <mxGeometry x="35" y="16.666666666666668" width="35" height="16.666666666666668" as="geometry" />
        </mxCell>
        <mxCell id="A2IB_tkcsXlLNOzob3Ax-5" value="c" style="rounded=0;whiteSpace=wrap;html=1;" parent="A2IB_tkcsXlLNOzob3Ax-7" vertex="1">
          <mxGeometry x="35" y="33.333333333333336" width="35" height="16.666666666666668" as="geometry" />
        </mxCell>
        <mxCell id="A2IB_tkcsXlLNOzob3Ax-6" value="d" style="rounded=0;whiteSpace=wrap;html=1;" parent="A2IB_tkcsXlLNOzob3Ax-7" vertex="1">
          <mxGeometry x="35" y="50" width="35" height="16.666666666666668" as="geometry" />
        </mxCell>
        <mxCell id="A2IB_tkcsXlLNOzob3Ax-15" value="x" style="text;html=1;strokeColor=none;fillColor=none;align=center;verticalAlign=middle;whiteSpace=wrap;rounded=0;dashed=1;" parent="A2IB_tkcsXlLNOzob3Ax-7" vertex="1">
          <mxGeometry x="-5" y="15" width="40" height="20" as="geometry" />
        </mxCell>
        <mxCell id="A2IB_tkcsXlLNOzob3Ax-9" value="next[...]" style="text;html=1;strokeColor=none;fillColor=none;align=center;verticalAlign=middle;whiteSpace=wrap;rounded=0;" parent="A2IB_tkcsXlLNOzob3Ax-12" vertex="1">
          <mxGeometry x="46" width="40" height="20" as="geometry" />
        </mxCell>
        <mxCell id="A2IB_tkcsXlLNOzob3Ax-8" value="key" style="text;html=1;strokeColor=none;fillColor=none;align=center;verticalAlign=middle;whiteSpace=wrap;rounded=0;" parent="A2IB_tkcsXlLNOzob3Ax-12" vertex="1">
          <mxGeometry width="40" height="20" as="geometry" />
        </mxCell>
        <mxCell id="HcVUrXkage0CEE2Wqh88-1" value="DBImpl" style="text;html=1;fillColor=none;align=center;verticalAlign=middle;whiteSpace=wrap;rounded=0;strokeColor=#000000;" vertex="1" parent="1">
          <mxGeometry x="160" y="410" width="50" height="30" as="geometry" />
        </mxCell>
        <mxCell id="HcVUrXkage0CEE2Wqh88-2" value="DB" style="text;html=1;fillColor=none;align=center;verticalAlign=middle;whiteSpace=wrap;rounded=0;strokeColor=#000000;" vertex="1" parent="1">
          <mxGeometry x="160" y="350" width="50" height="30" as="geometry" />
        </mxCell>
        <mxCell id="HcVUrXkage0CEE2Wqh88-9" value="&lt;meta charset=&quot;utf-8&quot;&gt;&lt;pre style=&quot;margin: 0px; padding: 0.88889em; font-size: 0.9em; word-break: normal; overflow-wrap: normal; overflow: auto; background: rgb(246, 246, 246); border-radius: 4px; color: rgb(18, 18, 18); font-style: normal; font-weight: 400; letter-spacing: normal; text-indent: 0px; text-transform: none; word-spacing: 0px;&quot;&gt;&lt;code class=&quot;language-text&quot; style=&quot;margin: 0px ; padding: 0px ; border-radius: 0px ; font-family: &amp;quot;menlo&amp;quot; , &amp;quot;monaco&amp;quot; , &amp;quot;consolas&amp;quot; , &amp;quot;andale mono&amp;quot; , &amp;quot;lucida console&amp;quot; , &amp;quot;courier new&amp;quot; , monospace ; font-size: inherit ; background-color: inherit&quot;&gt;const-lvalue-reference&lt;/code&gt;&lt;/pre&gt;" style="text;whiteSpace=wrap;html=1;" vertex="1" parent="1">
          <mxGeometry x="90" y="480" width="180" height="50" as="geometry" />
        </mxCell>
        <mxCell id="HcVUrXkage0CEE2Wqh88-14" style="edgeStyle=orthogonalEdgeStyle;rounded=0;orthogonalLoop=1;jettySize=auto;html=1;exitX=0.5;exitY=1;exitDx=0;exitDy=0;entryX=0.5;entryY=1;entryDx=0;entryDy=0;dashed=1;" edge="1" parent="1" source="HcVUrXkage0CEE2Wqh88-10" target="HcVUrXkage0CEE2Wqh88-13">
          <mxGeometry relative="1" as="geometry" />
        </mxCell>
        <mxCell id="HcVUrXkage0CEE2Wqh88-18" value="" style="edgeStyle=orthogonalEdgeStyle;rounded=0;orthogonalLoop=1;jettySize=auto;html=1;" edge="1" parent="1" source="HcVUrXkage0CEE2Wqh88-10" target="HcVUrXkage0CEE2Wqh88-11">
          <mxGeometry relative="1" as="geometry" />
        </mxCell>
        <mxCell id="HcVUrXkage0CEE2Wqh88-23" value="" style="edgeStyle=orthogonalEdgeStyle;rounded=0;orthogonalLoop=1;jettySize=auto;html=1;" edge="1" parent="1" source="HcVUrXkage0CEE2Wqh88-10" target="HcVUrXkage0CEE2Wqh88-9">
          <mxGeometry relative="1" as="geometry" />
        </mxCell>
        <mxCell id="HcVUrXkage0CEE2Wqh88-10" value="&lt;meta charset=&quot;utf-8&quot;&gt;&lt;pre style=&quot;margin: 0px; padding: 0.88889em; font-size: 0.9em; word-break: normal; overflow-wrap: normal; overflow: auto; background: rgb(246, 246, 246); border-radius: 4px; color: rgb(18, 18, 18); font-style: normal; font-weight: 400; letter-spacing: normal; text-indent: 0px; text-transform: none; word-spacing: 0px;&quot;&gt;&lt;code class=&quot;language-text&quot; style=&quot;margin: 0px ; padding: 0px ; border-radius: 0px ; font-family: &amp;quot;menlo&amp;quot; , &amp;quot;monaco&amp;quot; , &amp;quot;consolas&amp;quot; , &amp;quot;andale mono&amp;quot; , &amp;quot;lucida console&amp;quot; , &amp;quot;courier new&amp;quot; , monospace ; font-size: inherit ; background-color: inherit&quot;&gt;lvalue&lt;/code&gt;&lt;/pre&gt;" style="text;whiteSpace=wrap;html=1;" vertex="1" parent="1">
          <mxGeometry x="145" y="580" width="70" height="50" as="geometry" />
        </mxCell>
        <mxCell id="HcVUrXkage0CEE2Wqh88-19" style="edgeStyle=orthogonalEdgeStyle;rounded=0;orthogonalLoop=1;jettySize=auto;html=1;entryX=0;entryY=0.5;entryDx=0;entryDy=0;dashed=1;" edge="1" parent="1" source="HcVUrXkage0CEE2Wqh88-11" target="HcVUrXkage0CEE2Wqh88-13">
          <mxGeometry relative="1" as="geometry" />
        </mxCell>
        <mxCell id="HcVUrXkage0CEE2Wqh88-11" value="&lt;meta charset=&quot;utf-8&quot;&gt;&lt;pre style=&quot;margin: 0px; padding: 0.88889em; font-size: 0.9em; word-break: normal; overflow-wrap: normal; overflow: auto; background: rgb(246, 246, 246); border-radius: 4px; color: rgb(18, 18, 18); font-style: normal; font-weight: 400; letter-spacing: normal; text-indent: 0px; text-transform: none; word-spacing: 0px;&quot;&gt;&lt;code class=&quot;language-text&quot; style=&quot;margin: 0px ; padding: 0px ; border-radius: 0px ; font-family: &amp;quot;menlo&amp;quot; , &amp;quot;monaco&amp;quot; , &amp;quot;consolas&amp;quot; , &amp;quot;andale mono&amp;quot; , &amp;quot;lucida console&amp;quot; , &amp;quot;courier new&amp;quot; , monospace ; font-size: inherit ; background-color: inherit&quot;&gt;lvalue-reference&lt;/code&gt;&lt;/pre&gt;" style="text;whiteSpace=wrap;html=1;" vertex="1" parent="1">
          <mxGeometry x="265" y="580" width="135" height="50" as="geometry" />
        </mxCell>
        <mxCell id="HcVUrXkage0CEE2Wqh88-21" value="" style="edgeStyle=orthogonalEdgeStyle;rounded=0;orthogonalLoop=1;jettySize=auto;html=1;" edge="1" parent="1" source="HcVUrXkage0CEE2Wqh88-12" target="HcVUrXkage0CEE2Wqh88-13">
          <mxGeometry relative="1" as="geometry" />
        </mxCell>
        <mxCell id="HcVUrXkage0CEE2Wqh88-22" style="edgeStyle=orthogonalEdgeStyle;rounded=0;orthogonalLoop=1;jettySize=auto;html=1;" edge="1" parent="1" source="HcVUrXkage0CEE2Wqh88-12" target="HcVUrXkage0CEE2Wqh88-9">
          <mxGeometry relative="1" as="geometry" />
        </mxCell>
        <mxCell id="HcVUrXkage0CEE2Wqh88-12" value="&lt;meta charset=&quot;utf-8&quot;&gt;&lt;pre style=&quot;margin: 0px; padding: 0.88889em; font-size: 0.9em; word-break: normal; overflow-wrap: normal; overflow: auto; background: rgb(246, 246, 246); border-radius: 4px; color: rgb(18, 18, 18); font-style: normal; font-weight: 400; letter-spacing: normal; text-indent: 0px; text-transform: none; word-spacing: 0px;&quot;&gt;&lt;code class=&quot;language-text&quot; style=&quot;margin: 0px ; padding: 0px ; border-radius: 0px ; font-family: &amp;quot;menlo&amp;quot; , &amp;quot;monaco&amp;quot; , &amp;quot;consolas&amp;quot; , &amp;quot;andale mono&amp;quot; , &amp;quot;lucida console&amp;quot; , &amp;quot;courier new&amp;quot; , monospace ; font-size: inherit ; background-color: inherit&quot;&gt;rvalue&lt;/code&gt;&lt;/pre&gt;" style="text;whiteSpace=wrap;html=1;" vertex="1" parent="1">
          <mxGeometry x="510" y="480" width="60" height="50" as="geometry" />
        </mxCell>
        <mxCell id="HcVUrXkage0CEE2Wqh88-13" value="&lt;meta charset=&quot;utf-8&quot;&gt;&lt;pre style=&quot;margin: 0px; padding: 0.88889em; font-size: 0.9em; word-break: normal; overflow-wrap: normal; overflow: auto; background: rgb(246, 246, 246); border-radius: 4px; color: rgb(18, 18, 18); font-style: normal; font-weight: 400; letter-spacing: normal; text-indent: 0px; text-transform: none; word-spacing: 0px;&quot;&gt;&lt;code class=&quot;language-text&quot; style=&quot;margin: 0px ; padding: 0px ; border-radius: 0px ; font-family: &amp;quot;menlo&amp;quot; , &amp;quot;monaco&amp;quot; , &amp;quot;consolas&amp;quot; , &amp;quot;andale mono&amp;quot; , &amp;quot;lucida console&amp;quot; , &amp;quot;courier new&amp;quot; , monospace ; font-size: inherit ; background-color: inherit&quot;&gt; rvalue-reference&lt;/code&gt;&lt;/pre&gt;" style="text;whiteSpace=wrap;html=1;" vertex="1" parent="1">
          <mxGeometry x="470" y="580" width="140" height="50" as="geometry" />
        </mxCell>
        <mxCell id="HcVUrXkage0CEE2Wqh88-17" value="std::move()" style="text;html=1;strokeColor=none;align=center;verticalAlign=middle;whiteSpace=wrap;rounded=0;fillColor=#ffffff;fontStyle=2" vertex="1" parent="1">
          <mxGeometry x="331" y="652" width="80" height="20" as="geometry" />
        </mxCell>
        <mxCell id="HcVUrXkage0CEE2Wqh88-20" value="std::move()" style="text;html=1;strokeColor=none;fillColor=none;align=center;verticalAlign=middle;whiteSpace=wrap;rounded=0;fontStyle=2" vertex="1" parent="1">
          <mxGeometry x="400" y="580" width="80" height="20" as="geometry" />
        </mxCell>
        <mxCell id="HcVUrXkage0CEE2Wqh88-25" value="" style="shape=image;imageAspect=0;aspect=fixed;verticalLabelPosition=bottom;verticalAlign=top;strokeColor=#000000;fillColor=#ffffff;image=https://upload-images.jianshu.io/upload_images/1700062-7b04c10c212445c8.png?imageMogr2/auto-orient/strip|imageView2/2/w/483/format/webp;" vertex="1" parent="1">
          <mxGeometry x="640" y="480" width="393" height="172.5" as="geometry" />
        </mxCell>
        <mxCell id="HcVUrXkage0CEE2Wqh88-26" value="movable" style="text;html=1;strokeColor=none;fillColor=none;align=center;verticalAlign=middle;whiteSpace=wrap;rounded=0;fontStyle=2" vertex="1" parent="1">
          <mxGeometry x="500" y="690" width="80" height="20" as="geometry" />
        </mxCell>
      </root>
    </mxGraphModel>
  </diagram>
</mxfile>
